<?xml version="1.0" standalone="no"?>
<!DOCTYPE svg PUBLIC "-//W3C//DTD SVG 20010904//EN"
 "http://www.w3.org/TR/2001/REC-SVG-20010904/DTD/svg10.dtd">
<svg version="1.0" xmlns="http://www.w3.org/2000/svg"
 width="398.000000pt" height="398.000000pt" viewBox="0 0 398.000000 398.000000"
 preserveAspectRatio="xMidYMid meet">
<metadata>
Created by potrace 1.14, written by Peter Selinger 2001-2017
</metadata>
<g transform="translate(0.000000,398.000000) scale(0.100000,-0.100000)"
fill="#000000" stroke="none">
<path d="M1819 3975 c-2 -2 -33 -6 -69 -10 -36 -4 -74 -9 -85 -11 -201 -38
-364 -90 -518 -163 -304 -144 -532 -330 -760 -621 -58 -73 -229 -375 -237
-418 -1 -4 -8 -22 -16 -40 -45 -108 -106 -355 -122 -497 -14 -118 -7 -413 12
-530 67 -419 256 -793 546 -1085 140 -141 232 -215 392 -314 220 -135 433
-210 768 -271 75 -14 405 -13 515 2 355 46 667 176 970 406 404 306 688 810
753 1337 13 107 6 440 -12 540 -28 161 -101 414 -128 448 -6 6 -8 12 -4 12 18
0 -168 330 -231 410 -223 284 -447 470 -738 611 -148 71 -375 148 -490 164
-34 5 -99 16 -125 21 -29 6 -416 14 -421 9z"/>
</g>
</svg>
